<svg version="1.1" xmlns="http://www.w3.org/2000/svg" viewBox="0 0 1968 358" width="5904" height="1074">
  <!-- svg-source:excalidraw -->
  
  <defs>
    <style>
      @font-face {
        font-family: "Virgil";
        src: url("https://excalidraw.com/Virgil.woff2");
      }
      @font-face {
        font-family: "Cascadia";
        src: url("https://excalidraw.com/Cascadia.woff2");
      }
    </style>
  </defs>
  <rect x="0" y="0" width="1968" height="358" fill="#ffffff"></rect><g stroke-linecap="round" transform="translate(10 10) rotate(0 160.99999999999994 169)"><path d="M1.01 1.2 C114.04 0.19, 226.92 0.03, 322.22 0.25 M0.18 0.21 C126.56 0.3, 252.65 -0.41, 321.97 0.15 M322.79 -1.01 C319.65 127.14, 320.09 250.87, 322.08 337.05 M321.79 -0.22 C323.53 106.38, 322.89 213.59, 322.5 338.06 M323.25 338.63 C247.25 336.7, 172.69 335.2, -1.32 337.43 M322.27 337.34 C233.93 335.81, 145.63 335.48, -0.19 337.98 M0.56 338.47 C0.2 213.6, -1.11 88.32, -0.43 -0.84 M-0.45 338.22 C-0.3 212.41, 0.73 87.6, -0.27 -0.25" stroke="#000000" stroke-width="1" fill="none"></path></g><g stroke-linecap="round" transform="translate(571.9999999999999 12) rotate(0 171 163)"><path d="M-1.25 -0.29 C88.51 -1.89, 176.61 -1.23, 341.97 0.92 M0.23 0.14 C103.87 -1.46, 207.31 -1.16, 341.58 0.47 M342.46 -1.07 C341.01 95.63, 341.69 188.63, 341.48 325.78 M341.53 0.09 C343.9 98.84, 343.58 198.87, 341.76 326.06 M342.7 326.73 C271.97 324.95, 200.52 327.17, 0.21 325.95 M341.78 325.91 C242 324.68, 142.2 323.73, 0.39 325.91 M1.16 327.06 C-1.72 217.35, -2.57 109.85, 0.31 1.19 M0.11 326.67 C1.65 206.68, 1 87.93, -0.67 -0.62" stroke="#000000" stroke-width="1" fill="none"></path></g><g stroke-linecap="round" transform="translate(1102 18) rotate(0 164 162)"><path d="M-0.93 1.36 C105.97 -0.14, 211.78 -1.89, 326.97 0.29 M-0.61 -0.48 C66.82 -1.71, 133.11 -2.51, 327.75 -0.37 M328.85 0.45 C328.12 128.21, 327.84 254.8, 328.46 325.17 M327.98 0.49 C330.54 126.4, 330.6 252.11, 327.46 324.48 M327.68 324.27 C233.4 324.58, 138.52 326.05, 0.11 323.43 M328.66 323.67 C206.06 323.55, 85.99 322.7, 0.21 324.53 M-0.27 324.53 C2.17 214.71, 1.49 104.91, 0.85 0.95 M0.5 324.64 C-0.09 225.9, 0.46 128.37, 0.15 0.58" stroke="#000000" stroke-width="1" fill="none"></path></g><g stroke-linecap="round" transform="translate(1650 18) rotate(0 154 157)"><path d="M1.04 1.33 C92.58 -2.01, 186.73 -1.37, 308.32 1.21 M0.48 -0.4 C65.05 1.38, 130.29 2.66, 308.1 -0.38 M308.21 0.52 C309.36 125.06, 309.71 248.02, 307.77 313.46 M307.75 -0.18 C307.05 80.55, 306.56 160.67, 308.33 314.24 M308.59 314.21 C199.39 316.08, 89.46 316.01, 0.82 315.18 M308.61 313.65 C222.06 314.87, 136.32 314.82, -0.41 313.87 M-0.02 315.13 C-2.03 210.76, 0.48 104.37, 0.63 -0.48 M-0.23 313.86 C-1.2 234.42, -1.53 155.54, 0.29 0.42" stroke="#000000" stroke-width="1" fill="none"></path></g><g transform="translate(69.49999999999989 156) rotate(0 101.5 23)"><text x="101.5" y="32" font-family="Virgil, Segoe UI Emoji" font-size="36px" fill="#000000" text-anchor="middle" style="white-space: pre;" direction="ltr">Vault client</text></g><g transform="translate(632.9999999999999 152) rotate(0 110 23)"><text x="110" y="32" font-family="Virgil, Segoe UI Emoji" font-size="36px" fill="#000000" text-anchor="middle" style="white-space: pre;" direction="ltr">Vault server</text></g><g transform="translate(1134 142) rotate(0 136.5 45.5)"><text x="136.5" y="32.5" font-family="Virgil, Segoe UI Emoji" font-size="36px" fill="#000000" text-anchor="middle" style="white-space: pre;" direction="ltr">Vault</text><text x="136.5" y="78" font-family="Virgil, Segoe UI Emoji" font-size="36px" fill="#000000" text-anchor="middle" style="white-space: pre;" direction="ltr">Redis DB plugin</text></g><g transform="translate(1721 139) rotate(0 82 45.5)"><text x="82" y="32.5" font-family="Virgil, Segoe UI Emoji" font-size="36px" fill="#000000" text-anchor="middle" style="white-space: pre;" direction="ltr">Redis DB</text><text x="82" y="78" font-family="Virgil, Segoe UI Emoji" font-size="36px" fill="#000000" text-anchor="middle" style="white-space: pre;" direction="ltr">Server</text></g><g stroke-linecap="round"><g transform="translate(337.9999999999999 178) rotate(0 114.92535669116307 2.162839130777911)"><path d="M0 1.05 C38.05 1.57, 190.68 2.35, 229.08 2.84 M-1.46 0.56 C36.89 1.21, 192.76 2.97, 231.31 3.77" stroke="#000000" stroke-width="1" fill="none"></path></g><g transform="translate(337.9999999999999 178) rotate(0 114.92535669116307 2.162839130777911)"><path d="M204.71 12.06 C211.49 10.6, 223.89 4.54, 230.55 4.24 M203.73 14.37 C209.13 11.1, 216.74 8.54, 231.13 3.83" stroke="#000000" stroke-width="1" fill="none"></path></g><g transform="translate(337.9999999999999 178) rotate(0 114.92535669116307 2.162839130777911)"><path d="M205.03 -8.46 C211.64 -2.36, 223.93 -0.86, 230.55 4.24 M204.04 -6.15 C209.19 -4.81, 216.73 -2.76, 231.13 3.83" stroke="#000000" stroke-width="1" fill="none"></path></g></g><g stroke-linecap="round"><g transform="translate(915.9999999999999 180) rotate(0 87.46802295131602 -1.1537797119468678)"><path d="M0.84 0.12 C29.98 -0.22, 146.4 -1.93, 175.11 -2.43 M-0.18 -0.86 C28.87 -1, 145.47 -0.93, 174.75 -1.12" stroke="#000000" stroke-width="1" fill="none"></path></g><g transform="translate(915.9999999999999 180) rotate(0 87.46802295131602 -1.1537797119468678)"><path d="M146.79 11.06 C155.07 4.13, 163.52 0.58, 176 0.8 M146.6 8.65 C154.69 6.13, 162.74 2.61, 174.21 -1.07" stroke="#000000" stroke-width="1" fill="none"></path></g><g transform="translate(915.9999999999999 180) rotate(0 87.46802295131602 -1.1537797119468678)"><path d="M146.74 -9.46 C154.97 -9.71, 163.44 -6.57, 176 0.8 M146.55 -11.87 C154.73 -8.6, 162.79 -6.31, 174.21 -1.07" stroke="#000000" stroke-width="1" fill="none"></path></g></g><g stroke-linecap="round"><g transform="translate(1440 180) rotate(0 101.93845016621049 0.44106970455499095)"><path d="M-1.02 -0.65 C32.99 -0.42, 170.54 0.86, 204.89 0.91 M0.65 1.62 C34.5 1.56, 170.38 -0.6, 204.42 -0.74" stroke="#000000" stroke-width="1" fill="none"></path></g><g transform="translate(1440 180) rotate(0 101.93845016621049 0.44106970455499095)"><path d="M175.25 11.31 C188.31 7.95, 196.65 3.91, 204.55 -0.42 M176.13 9.69 C185.26 7.2, 192.95 4.52, 203.56 -0.51" stroke="#000000" stroke-width="1" fill="none"></path></g><g transform="translate(1440 180) rotate(0 101.93845016621049 0.44106970455499095)"><path d="M175.03 -9.21 C188.1 -4.95, 196.52 -1.37, 204.55 -0.42 M175.91 -10.83 C185.19 -7.19, 192.95 -3.75, 203.56 -0.51" stroke="#000000" stroke-width="1" fill="none"></path></g></g></svg>